# xmcd
#
# Track frame offsets:
#	150
#	8824
#	26723
#	38073
#	50828
#	60495
#	70201
#	86475
#	96241
#	112018
#	123473
#	134639
#
# Disc length: 1956 seconds
# Revision: 0
# Processed by: cddbd v1.5.2PL0 Copyright (c) Steve Scherf et al.
# Submitted via: dBpowerAMP V12.0
#
DISCID=a907a20c
DTITLE=Various Artist - All Time Country Classics
DYEAR=1989
DGENRE=Country
TTITLE0=Lee Greenwood - God Bless the U.S.A.
TTITLE1=The Kendalls - Heaven's Just A Sin Away
TTITLE2=Conway Twitty - Hello Darlin'
TTITLE3=Roger Miller - King Of the Road
TTITLE4=Johnny Lee - Looking for Love
TTITLE5=Ed Bruce - Mama Don't Let Your Babies Grow Up To Be Cowboys
TTITLE6=Bill Anderson - Still
TTITLE7=Merle Haggard - Workin' Man Blues
TTITLE8=Jerry Wallace - If You Leave Me Tonight, I'll Cry
TTITLE9=Hank Locklin - Let Me Be the One
TTITLE10=Patsy Cline - Walkin' After Midnight
TTITLE11=Wynn Stewart and Jerry Fuller - Wishful Thinking
EXTD=
EXTT0=
EXTT1=
EXTT2=
EXTT3=
EXTT4=
EXTT5=
EXTT6=
EXTT7=
EXTT8=
EXTT9=
EXTT10=
EXTT11=
PLAYORDER=
